<svg xmlns="http://www.w3.org/2000/svg" width="140" height="81" viewBox="0 0 140 81" fill="none">
  <path d="M18.476 0.511963C18.38 1.42396 18.308 2.31196 18.26 3.17596C18.236 4.01596 18.224 4.66396 18.224 5.11996C18.224 5.69596 18.236 6.23596 18.26 6.73996C18.284 7.24396 18.308 7.68796 18.332 8.07196H17.504C17.336 6.39196 17.108 5.07196 16.82 4.11196C16.532 3.12796 16.028 2.41996 15.308 1.98796C14.588 1.55596 13.472 1.33996 11.96 1.33996H9.69202C8.87602 1.33996 8.25202 1.41196 7.82002 1.55596C7.41202 1.67596 7.13602 1.95196 6.99202 2.38396C6.84802 2.79196 6.77602 3.43996 6.77602 4.32796V22.184C6.77602 23.048 6.86002 23.696 7.02802 24.128C7.22002 24.56 7.58002 24.848 8.10802 24.992C8.63602 25.136 9.40403 25.232 10.412 25.28V26C9.78803 25.952 8.99603 25.928 8.03603 25.928C7.07603 25.904 6.10403 25.892 5.12003 25.892C4.18403 25.892 3.30802 25.904 2.49202 25.928C1.67602 25.928 1.01602 25.952 0.512024 26V25.28C1.32802 25.232 1.94002 25.136 2.34802 24.992C2.78002 24.848 3.06802 24.56 3.21202 24.128C3.35602 23.696 3.42802 23.048 3.42802 22.184V4.32796C3.42802 3.43996 3.35602 2.79196 3.21202 2.38396C3.06802 1.95196 2.78002 1.66396 2.34802 1.51996C1.94002 1.35196 1.32802 1.25596 0.512024 1.23196V0.511963C1.40002 0.535963 2.33602 0.559961 3.32002 0.583961C4.30402 0.583961 5.27602 0.595965 6.23602 0.619965C7.19602 0.619965 8.08402 0.619965 8.90002 0.619965C9.74002 0.619965 10.424 0.619965 10.952 0.619965C12.056 0.619965 13.304 0.619965 14.696 0.619965C16.112 0.595965 17.372 0.559963 18.476 0.511963ZM12.896 13.184C12.896 13.184 12.896 13.304 12.896 13.544C12.896 13.784 12.896 13.904 12.896 13.904H5.69602C5.69602 13.904 5.69602 13.784 5.69602 13.544C5.69602 13.304 5.69602 13.184 5.69602 13.184H12.896ZM13.58 8.43196C13.484 9.79996 13.436 10.844 13.436 11.564C13.46 12.284 13.472 12.944 13.472 13.544C13.472 14.144 13.484 14.804 13.508 15.524C13.532 16.244 13.592 17.288 13.688 18.656H12.86C12.764 17.888 12.644 17.144 12.5 16.424C12.38 15.68 12.092 15.08 11.636 14.624C11.204 14.144 10.46 13.904 9.40403 13.904V13.184C10.196 13.184 10.796 13.028 11.204 12.716C11.636 12.38 11.948 11.96 12.14 11.456C12.332 10.952 12.464 10.436 12.536 9.90796C12.608 9.35596 12.68 8.86396 12.752 8.43196H13.58ZM25.16 26.252C24.176 26.252 23.324 26.072 22.604 25.712C21.884 25.328 21.332 24.8 20.948 24.128C20.588 23.456 20.408 22.676 20.408 21.788C20.408 20.732 20.648 19.868 21.128 19.196C21.632 18.524 22.268 17.984 23.036 17.576C23.804 17.168 24.608 16.832 25.448 16.568C26.312 16.28 27.128 16.016 27.896 15.776C28.664 15.512 29.288 15.212 29.768 14.876C30.272 14.54 30.524 14.096 30.524 13.544V11.312C30.524 10.304 30.368 9.53596 30.056 9.00797C29.768 8.47997 29.372 8.13196 28.868 7.96396C28.364 7.77196 27.8 7.67596 27.176 7.67596C26.576 7.67596 25.928 7.75996 25.232 7.92796C24.56 8.09596 24.02 8.44396 23.612 8.97196C24.068 9.06796 24.464 9.30796 24.8 9.69196C25.136 10.076 25.304 10.568 25.304 11.168C25.304 11.768 25.112 12.248 24.728 12.608C24.344 12.944 23.852 13.112 23.252 13.112C22.556 13.112 22.04 12.896 21.704 12.464C21.392 12.008 21.236 11.504 21.236 10.952C21.236 10.328 21.392 9.82396 21.704 9.43996C22.016 9.05596 22.412 8.69596 22.892 8.35996C23.444 7.97596 24.152 7.65196 25.016 7.38796C25.904 7.09996 26.9 6.95596 28.004 6.95596C28.988 6.95596 29.828 7.07596 30.524 7.31596C31.22 7.53196 31.796 7.85596 32.252 8.28796C32.876 8.86396 33.284 9.57196 33.476 10.412C33.668 11.228 33.764 12.212 33.764 13.364V23.372C33.764 23.972 33.848 24.404 34.016 24.668C34.208 24.932 34.496 25.064 34.88 25.064C35.144 25.064 35.396 25.004 35.636 24.884C35.876 24.764 36.164 24.572 36.5 24.308L36.896 24.92C36.392 25.304 35.912 25.628 35.456 25.892C35 26.132 34.388 26.252 33.62 26.252C32.924 26.252 32.348 26.132 31.892 25.892C31.436 25.652 31.088 25.304 30.848 24.848C30.632 24.368 30.524 23.768 30.524 23.048C29.876 24.128 29.096 24.932 28.184 25.46C27.296 25.988 26.288 26.252 25.16 26.252ZM26.456 24.812C27.248 24.812 27.98 24.584 28.652 24.128C29.348 23.672 29.972 22.988 30.524 22.076V15.02C30.236 15.428 29.816 15.776 29.264 16.064C28.712 16.328 28.112 16.604 27.464 16.892C26.816 17.156 26.192 17.48 25.592 17.864C25.016 18.224 24.536 18.704 24.152 19.304C23.768 19.904 23.576 20.684 23.576 21.644C23.576 22.604 23.828 23.372 24.332 23.948C24.86 24.524 25.568 24.812 26.456 24.812ZM44.422 6.95596C45.382 6.95596 46.198 7.11197 46.87 7.42397C47.542 7.73597 48.034 8.02396 48.346 8.28796C49.138 8.93596 49.618 8.50396 49.786 6.99196H50.614C50.566 7.66396 50.53 8.46796 50.506 9.40396C50.482 10.316 50.47 11.552 50.47 13.112H49.642C49.498 12.224 49.246 11.36 48.886 10.52C48.55 9.67996 48.046 8.99596 47.374 8.46796C46.702 7.91596 45.826 7.63996 44.746 7.63996C43.906 7.63996 43.198 7.87996 42.622 8.35996C42.07 8.81596 41.794 9.49996 41.794 10.412C41.794 11.132 42.01 11.756 42.442 12.284C42.874 12.788 43.438 13.268 44.134 13.724C44.83 14.156 45.586 14.636 46.402 15.164C47.314 15.74 48.142 16.328 48.886 16.928C49.63 17.528 50.218 18.188 50.65 18.908C51.106 19.628 51.334 20.48 51.334 21.464C51.334 22.568 51.046 23.492 50.47 24.236C49.894 24.98 49.138 25.544 48.202 25.928C47.29 26.312 46.282 26.504 45.178 26.504C44.65 26.504 44.146 26.456 43.666 26.36C43.21 26.288 42.766 26.168 42.334 26C42.094 25.88 41.842 25.736 41.578 25.568C41.338 25.4 41.098 25.22 40.858 25.028C40.618 24.836 40.402 24.848 40.21 25.064C40.018 25.256 39.874 25.652 39.778 26.252H38.95C38.998 25.484 39.034 24.548 39.058 23.444C39.082 22.34 39.094 20.876 39.094 19.052H39.922C40.09 20.396 40.33 21.572 40.642 22.58C40.954 23.588 41.446 24.38 42.118 24.956C42.79 25.508 43.726 25.784 44.926 25.784C45.406 25.784 45.886 25.676 46.366 25.46C46.87 25.244 47.29 24.884 47.626 24.38C47.962 23.876 48.13 23.204 48.13 22.364C48.13 21.308 47.746 20.444 46.978 19.772C46.21 19.1 45.238 18.392 44.062 17.648C43.198 17.096 42.382 16.544 41.614 15.992C40.87 15.44 40.258 14.816 39.778 14.12C39.322 13.424 39.094 12.584 39.094 11.6C39.094 10.52 39.334 9.64396 39.814 8.97196C40.318 8.27596 40.978 7.77196 41.794 7.45996C42.61 7.12396 43.486 6.95596 44.422 6.95596ZM59.875 1.48396V7.49596H65.203V8.21597H59.875V22.148C59.875 23.276 60.079 24.068 60.487 24.524C60.895 24.98 61.459 25.208 62.179 25.208C62.899 25.208 63.523 24.92 64.051 24.344C64.579 23.744 65.035 22.748 65.419 21.356L66.139 21.536C65.899 22.928 65.419 24.104 64.699 25.064C64.003 26.024 62.923 26.504 61.459 26.504C60.643 26.504 59.971 26.396 59.443 26.18C58.915 25.988 58.447 25.7 58.039 25.316C57.511 24.764 57.139 24.104 56.923 23.336C56.731 22.568 56.635 21.548 56.635 20.276V8.21597H53.179V7.49596H56.635V1.98796C57.235 1.96396 57.811 1.91596 58.363 1.84396C58.915 1.77196 59.419 1.65196 59.875 1.48396ZM6.48802 54.956C7.44802 54.956 8.26402 55.112 8.93602 55.424C9.60802 55.736 10.1 56.024 10.412 56.288C11.204 56.936 11.684 56.504 11.852 54.992H12.68C12.632 55.664 12.596 56.468 12.572 57.404C12.548 58.316 12.536 59.552 12.536 61.112H11.708C11.564 60.224 11.312 59.36 10.952 58.52C10.616 57.68 10.112 56.996 9.44003 56.468C8.76803 55.916 7.89202 55.64 6.81202 55.64C5.97202 55.64 5.26403 55.88 4.68803 56.36C4.13603 56.816 3.86002 57.5 3.86002 58.412C3.86002 59.132 4.07603 59.756 4.50803 60.284C4.94003 60.788 5.50402 61.268 6.20002 61.724C6.89602 62.156 7.65203 62.636 8.46803 63.164C9.38002 63.74 10.208 64.328 10.952 64.928C11.696 65.528 12.284 66.188 12.716 66.908C13.172 67.628 13.4 68.48 13.4 69.464C13.4 70.568 13.112 71.492 12.536 72.236C11.96 72.98 11.204 73.544 10.268 73.928C9.35603 74.312 8.34803 74.504 7.24403 74.504C6.71603 74.504 6.21203 74.456 5.73203 74.36C5.27603 74.288 4.83202 74.168 4.40002 74C4.16002 73.88 3.90802 73.736 3.64402 73.568C3.40402 73.4 3.16403 73.22 2.92403 73.028C2.68403 72.836 2.46802 72.848 2.27602 73.064C2.08402 73.256 1.94002 73.652 1.84402 74.252H1.01602C1.06402 73.484 1.10002 72.548 1.12402 71.444C1.14802 70.34 1.16003 68.876 1.16003 67.052H1.98802C2.15602 68.396 2.39602 69.572 2.70802 70.58C3.02002 71.588 3.51202 72.38 4.18402 72.956C4.85602 73.508 5.79202 73.784 6.99202 73.784C7.47202 73.784 7.95202 73.676 8.43202 73.46C8.93602 73.244 9.35602 72.884 9.69202 72.38C10.028 71.876 10.196 71.204 10.196 70.364C10.196 69.308 9.81203 68.444 9.04403 67.772C8.27603 67.1 7.30402 66.392 6.12802 65.648C5.26402 65.096 4.44802 64.544 3.68002 63.992C2.93602 63.44 2.32402 62.816 1.84402 62.12C1.38802 61.424 1.16003 60.584 1.16003 59.6C1.16003 58.52 1.40002 57.644 1.88002 56.972C2.38402 56.276 3.04402 55.772 3.86002 55.46C4.67602 55.124 5.55202 54.956 6.48802 54.956ZM21.798 45.812V59.276C22.422 57.644 23.286 56.516 24.39 55.892C25.518 55.268 26.694 54.956 27.918 54.956C28.83 54.956 29.586 55.076 30.186 55.316C30.81 55.556 31.326 55.892 31.734 56.324C32.19 56.804 32.514 57.404 32.706 58.124C32.898 58.844 32.994 59.816 32.994 61.04V70.652C32.994 71.66 33.198 72.344 33.606 72.704C34.038 73.064 34.746 73.244 35.73 73.244V74C35.322 73.976 34.698 73.952 33.858 73.928C33.018 73.88 32.202 73.856 31.41 73.856C30.618 73.856 29.838 73.88 29.07 73.928C28.326 73.952 27.762 73.976 27.378 74V73.244C28.242 73.244 28.854 73.064 29.214 72.704C29.574 72.344 29.754 71.66 29.754 70.652V60.248C29.754 59.504 29.694 58.82 29.574 58.196C29.454 57.572 29.178 57.068 28.746 56.684C28.338 56.3 27.702 56.108 26.838 56.108C25.854 56.108 24.978 56.384 24.21 56.936C23.466 57.488 22.878 58.256 22.446 59.24C22.014 60.224 21.798 61.352 21.798 62.624V70.652C21.798 71.66 21.978 72.344 22.338 72.704C22.698 73.064 23.31 73.244 24.174 73.244V74C23.79 73.976 23.214 73.952 22.446 73.928C21.702 73.88 20.934 73.856 20.142 73.856C19.35 73.856 18.534 73.88 17.694 73.928C16.854 73.952 16.23 73.976 15.822 74V73.244C16.806 73.244 17.502 73.064 17.91 72.704C18.342 72.344 18.558 71.66 18.558 70.652V50.132C18.558 49.052 18.366 48.26 17.982 47.756C17.598 47.228 16.878 46.964 15.822 46.964V46.208C16.59 46.28 17.334 46.316 18.054 46.316C18.75 46.316 19.41 46.28 20.034 46.208C20.682 46.112 21.27 45.98 21.798 45.812ZM41.414 46.46C42.038 46.46 42.578 46.688 43.034 47.144C43.49 47.6 43.718 48.14 43.718 48.764C43.718 49.388 43.49 49.928 43.034 50.384C42.578 50.84 42.038 51.068 41.414 51.068C40.79 51.068 40.25 50.84 39.794 50.384C39.338 49.928 39.11 49.388 39.11 48.764C39.11 48.14 39.338 47.6 39.794 47.144C40.25 46.688 40.79 46.46 41.414 46.46ZM43.286 55.064V70.652C43.286 71.66 43.49 72.344 43.898 72.704C44.33 73.064 45.038 73.244 46.022 73.244V74C45.614 73.976 44.99 73.952 44.15 73.928C43.334 73.88 42.506 73.856 41.666 73.856C40.85 73.856 40.022 73.88 39.182 73.928C38.342 73.952 37.718 73.976 37.31 74V73.244C38.294 73.244 38.99 73.064 39.398 72.704C39.83 72.344 40.046 71.66 40.046 70.652V59.384C40.046 58.304 39.854 57.512 39.47 57.008C39.086 56.48 38.366 56.216 37.31 56.216V55.46C38.078 55.532 38.822 55.568 39.542 55.568C40.238 55.568 40.898 55.532 41.522 55.46C42.17 55.364 42.758 55.232 43.286 55.064ZM53.581 55.064V77.168C53.581 78.2 53.881 78.884 54.481 79.22C55.105 79.58 55.957 79.76 57.037 79.76V80.516C56.509 80.492 55.777 80.456 54.841 80.408C53.905 80.384 52.909 80.372 51.853 80.372C51.109 80.372 50.365 80.384 49.621 80.408C48.901 80.456 48.349 80.492 47.965 80.516V79.76C48.829 79.76 49.441 79.604 49.801 79.292C50.161 78.98 50.341 78.392 50.341 77.528V59.384C50.341 58.304 50.149 57.512 49.765 57.008C49.381 56.48 48.661 56.216 47.605 56.216V55.46C48.373 55.532 49.117 55.568 49.837 55.568C50.533 55.568 51.193 55.532 51.817 55.46C52.465 55.364 53.053 55.232 53.581 55.064ZM59.341 54.956C60.613 54.956 61.753 55.304 62.761 56C63.769 56.672 64.561 57.668 65.137 58.988C65.737 60.308 66.037 61.94 66.037 63.884C66.037 65.18 65.881 66.464 65.569 67.736C65.257 68.984 64.765 70.124 64.093 71.156C63.445 72.164 62.593 72.98 61.537 73.604C60.505 74.204 59.257 74.504 57.793 74.504C56.665 74.504 55.681 74.24 54.841 73.712C54.025 73.184 53.473 72.548 53.185 71.804L53.545 71.3C53.881 71.972 54.361 72.536 54.985 72.992C55.633 73.448 56.437 73.676 57.396 73.676C58.741 73.676 59.785 73.256 60.529 72.416C61.273 71.576 61.789 70.46 62.077 69.068C62.389 67.652 62.545 66.092 62.545 64.388C62.545 62.468 62.389 60.896 62.077 59.672C61.765 58.448 61.297 57.536 60.673 56.936C60.049 56.336 59.281 56.036 58.369 56.036C57.193 56.036 56.125 56.528 55.165 57.512C54.205 58.472 53.593 59.936 53.329 61.904L52.897 61.4C53.161 59.36 53.881 57.776 55.057 56.648C56.257 55.52 57.685 54.956 59.341 54.956ZM74.498 55.064V77.168C74.498 78.2 74.798 78.884 75.398 79.22C76.022 79.58 76.874 79.76 77.954 79.76V80.516C77.426 80.492 76.694 80.456 75.758 80.408C74.822 80.384 73.826 80.372 72.77 80.372C72.026 80.372 71.282 80.384 70.538 80.408C69.818 80.456 69.266 80.492 68.882 80.516V79.76C69.746 79.76 70.358 79.604 70.718 79.292C71.078 78.98 71.258 78.392 71.258 77.528V59.384C71.258 58.304 71.066 57.512 70.682 57.008C70.298 56.48 69.578 56.216 68.522 56.216V55.46C69.29 55.532 70.034 55.568 70.754 55.568C71.45 55.568 72.11 55.532 72.734 55.46C73.382 55.364 73.97 55.232 74.498 55.064ZM80.258 54.956C81.53 54.956 82.67 55.304 83.678 56C84.686 56.672 85.478 57.668 86.054 58.988C86.654 60.308 86.954 61.94 86.954 63.884C86.954 65.18 86.798 66.464 86.486 67.736C86.174 68.984 85.682 70.124 85.01 71.156C84.362 72.164 83.51 72.98 82.454 73.604C81.422 74.204 80.174 74.504 78.71 74.504C77.582 74.504 76.598 74.24 75.758 73.712C74.942 73.184 74.39 72.548 74.102 71.804L74.462 71.3C74.798 71.972 75.278 72.536 75.902 72.992C76.55 73.448 77.354 73.676 78.314 73.676C79.658 73.676 80.702 73.256 81.446 72.416C82.19 71.576 82.706 70.46 82.994 69.068C83.306 67.652 83.462 66.092 83.462 64.388C83.462 62.468 83.306 60.896 82.994 59.672C82.682 58.448 82.214 57.536 81.59 56.936C80.966 56.336 80.198 56.036 79.286 56.036C78.11 56.036 77.042 56.528 76.082 57.512C75.122 58.472 74.51 59.936 74.246 61.904L73.814 61.4C74.078 59.36 74.798 57.776 75.974 56.648C77.174 55.52 78.602 54.956 80.258 54.956ZM93.796 46.46C94.42 46.46 94.96 46.688 95.416 47.144C95.872 47.6 96.1 48.14 96.1 48.764C96.1 49.388 95.872 49.928 95.416 50.384C94.96 50.84 94.42 51.068 93.796 51.068C93.172 51.068 92.632 50.84 92.176 50.384C91.72 49.928 91.492 49.388 91.492 48.764C91.492 48.14 91.72 47.6 92.176 47.144C92.632 46.688 93.172 46.46 93.796 46.46ZM95.668 55.064V70.652C95.668 71.66 95.872 72.344 96.28 72.704C96.712 73.064 97.42 73.244 98.404 73.244V74C97.996 73.976 97.372 73.952 96.532 73.928C95.716 73.88 94.888 73.856 94.048 73.856C93.232 73.856 92.404 73.88 91.564 73.928C90.724 73.952 90.1 73.976 89.692 74V73.244C90.676 73.244 91.372 73.064 91.78 72.704C92.212 72.344 92.428 71.66 92.428 70.652V59.384C92.428 58.304 92.236 57.512 91.852 57.008C91.468 56.48 90.748 56.216 89.692 56.216V55.46C90.46 55.532 91.204 55.568 91.924 55.568C92.62 55.568 93.28 55.532 93.904 55.46C94.552 55.364 95.14 55.232 95.668 55.064ZM112.335 54.956C113.247 54.956 114.003 55.076 114.603 55.316C115.227 55.556 115.743 55.892 116.151 56.324C116.607 56.804 116.931 57.404 117.123 58.124C117.315 58.844 117.411 59.816 117.411 61.04V70.652C117.411 71.66 117.615 72.344 118.023 72.704C118.455 73.064 119.163 73.244 120.147 73.244V74C119.739 73.976 119.115 73.952 118.275 73.928C117.435 73.88 116.619 73.856 115.827 73.856C115.035 73.856 114.255 73.88 113.487 73.928C112.743 73.952 112.179 73.976 111.795 74V73.244C112.659 73.244 113.271 73.064 113.631 72.704C113.991 72.344 114.171 71.66 114.171 70.652V60.248C114.171 59.504 114.111 58.82 113.991 58.196C113.871 57.572 113.595 57.068 113.163 56.684C112.755 56.3 112.119 56.108 111.255 56.108C110.247 56.108 109.359 56.396 108.591 56.972C107.847 57.548 107.259 58.34 106.827 59.348C106.419 60.332 106.215 61.436 106.215 62.66V70.652C106.215 71.66 106.395 72.344 106.755 72.704C107.115 73.064 107.727 73.244 108.591 73.244V74C108.207 73.976 107.631 73.952 106.863 73.928C106.119 73.88 105.351 73.856 104.559 73.856C103.767 73.856 102.951 73.88 102.111 73.928C101.271 73.952 100.647 73.976 100.239 74V73.244C101.223 73.244 101.919 73.064 102.327 72.704C102.759 72.344 102.975 71.66 102.975 70.652V59.384C102.975 58.304 102.783 57.512 102.399 57.008C102.015 56.48 101.295 56.216 100.239 56.216V55.46C101.007 55.532 101.751 55.568 102.471 55.568C103.167 55.568 103.827 55.532 104.451 55.46C105.099 55.364 105.687 55.232 106.215 55.064V59.312C106.839 57.68 107.703 56.552 108.807 55.928C109.935 55.28 111.111 54.956 112.335 54.956ZM127.992 80.768C126.72 80.768 125.52 80.636 124.392 80.372C123.264 80.108 122.352 79.688 121.656 79.112C120.984 78.56 120.648 77.852 120.648 76.988C120.648 76.148 120.984 75.428 121.656 74.828C122.328 74.228 123.24 73.772 124.392 73.46L124.608 74.036C124.08 74.204 123.66 74.54 123.348 75.044C123.036 75.548 122.88 76.112 122.88 76.736C122.88 77.84 123.384 78.68 124.392 79.256C125.424 79.856 126.756 80.156 128.388 80.156C129.468 80.156 130.524 80.012 131.556 79.724C132.588 79.46 133.44 79.004 134.112 78.356C134.784 77.708 135.12 76.856 135.12 75.8C135.12 75.008 134.832 74.36 134.256 73.856C133.704 73.328 132.6 73.064 130.944 73.064H128.28C127.512 73.064 126.768 73.004 126.048 72.884C125.328 72.764 124.74 72.512 124.284 72.128C123.828 71.744 123.6 71.156 123.6 70.364C123.6 69.548 123.936 68.768 124.608 68.024C125.28 67.256 126.516 66.476 128.316 65.684L128.748 66.008C127.932 66.44 127.224 66.884 126.624 67.34C126.024 67.772 125.724 68.288 125.724 68.888C125.724 69.656 126.3 70.04 127.452 70.04H131.952C132.96 70.04 133.884 70.184 134.724 70.472C135.588 70.76 136.284 71.216 136.812 71.84C137.34 72.464 137.604 73.28 137.604 74.288C137.604 75.416 137.244 76.472 136.524 77.456C135.804 78.44 134.724 79.232 133.284 79.832C131.868 80.456 130.104 80.768 127.992 80.768ZM128.172 66.332C126.996 66.332 125.928 66.14 124.968 65.756C124.008 65.348 123.252 64.724 122.7 63.884C122.148 63.044 121.872 61.964 121.872 60.644C121.872 59.324 122.148 58.244 122.7 57.404C123.252 56.564 124.008 55.952 124.968 55.568C125.928 55.16 126.996 54.956 128.172 54.956C129.372 54.956 130.44 55.16 131.376 55.568C132.336 55.952 133.092 56.564 133.644 57.404C134.196 58.244 134.472 59.324 134.472 60.644C134.472 61.964 134.196 63.044 133.644 63.884C133.092 64.724 132.336 65.348 131.376 65.756C130.44 66.14 129.372 66.332 128.172 66.332ZM128.172 65.684C129.084 65.684 129.792 65.324 130.296 64.604C130.824 63.884 131.088 62.564 131.088 60.644C131.088 58.724 130.824 57.404 130.296 56.684C129.792 55.964 129.084 55.604 128.172 55.604C127.284 55.604 126.576 55.964 126.048 56.684C125.52 57.404 125.256 58.724 125.256 60.644C125.256 62.564 125.52 63.884 126.048 64.604C126.576 65.324 127.284 65.684 128.172 65.684ZM133.356 57.944L132.708 57.692C133.044 56.876 133.62 56.156 134.436 55.532C135.252 54.908 136.104 54.596 136.992 54.596C137.616 54.596 138.12 54.776 138.504 55.136C138.888 55.472 139.08 55.988 139.08 56.684C139.08 57.428 138.876 57.956 138.468 58.268C138.084 58.556 137.688 58.7 137.28 58.7C136.92 58.7 136.584 58.58 136.272 58.34C135.96 58.076 135.78 57.668 135.732 57.116C135.684 56.564 135.852 55.856 136.236 54.992L136.704 55.1C135.696 55.484 134.976 55.892 134.544 56.324C134.112 56.732 133.716 57.272 133.356 57.944Z" fill="white"/>
</svg>