<svg xmlns="http://www.w3.org/2000/svg" width="139" height="84" viewBox="0 0 139 84" fill="none">
  <path d="M5.14799 1.46C5.772 1.46 6.31199 1.688 6.76799 2.144C7.22399 2.6 7.452 3.14 7.452 3.764C7.452 4.388 7.22399 4.928 6.76799 5.384C6.31199 5.84 5.772 6.068 5.14799 6.068C4.52399 6.068 3.98399 5.84 3.52799 5.384C3.07199 4.928 2.84399 4.388 2.84399 3.764C2.84399 3.14 3.07199 2.6 3.52799 2.144C3.98399 1.688 4.52399 1.46 5.14799 1.46ZM7.01999 10.064V25.652C7.01999 26.66 7.224 27.344 7.632 27.704C8.064 28.064 8.77199 28.244 9.75599 28.244V29C9.34799 28.976 8.724 28.952 7.884 28.928C7.068 28.88 6.23999 28.856 5.39999 28.856C4.58399 28.856 3.75599 28.88 2.91599 28.928C2.07599 28.952 1.45199 28.976 1.04399 29V28.244C2.02799 28.244 2.724 28.064 3.132 27.704C3.564 27.344 3.77999 26.66 3.77999 25.652V14.384C3.77999 13.304 3.58799 12.512 3.20399 12.008C2.81999 11.48 2.09999 11.216 1.04399 11.216V10.46C1.81199 10.532 2.55599 10.568 3.27599 10.568C3.97199 10.568 4.63199 10.532 5.25599 10.46C5.90399 10.364 6.49199 10.232 7.01999 10.064ZM23.687 9.956C24.599 9.956 25.355 10.076 25.955 10.316C26.579 10.556 27.095 10.892 27.503 11.324C27.959 11.804 28.283 12.404 28.475 13.124C28.667 13.844 28.763 14.816 28.763 16.04V25.652C28.763 26.66 28.967 27.344 29.375 27.704C29.807 28.064 30.515 28.244 31.499 28.244V29C31.091 28.976 30.467 28.952 29.627 28.928C28.787 28.88 27.971 28.856 27.179 28.856C26.387 28.856 25.607 28.88 24.839 28.928C24.095 28.952 23.531 28.976 23.147 29V28.244C24.011 28.244 24.623 28.064 24.983 27.704C25.343 27.344 25.523 26.66 25.523 25.652V15.248C25.523 14.504 25.463 13.82 25.343 13.196C25.223 12.572 24.947 12.068 24.515 11.684C24.107 11.3 23.471 11.108 22.607 11.108C21.599 11.108 20.711 11.396 19.943 11.972C19.199 12.548 18.611 13.34 18.179 14.348C17.771 15.332 17.567 16.436 17.567 17.66V25.652C17.567 26.66 17.747 27.344 18.107 27.704C18.467 28.064 19.079 28.244 19.943 28.244V29C19.559 28.976 18.983 28.952 18.215 28.928C17.471 28.88 16.703 28.856 15.911 28.856C15.119 28.856 14.303 28.88 13.463 28.928C12.623 28.952 11.999 28.976 11.591 29V28.244C12.575 28.244 13.271 28.064 13.679 27.704C14.111 27.344 14.327 26.66 14.327 25.652V14.384C14.327 13.304 14.135 12.512 13.751 12.008C13.367 11.48 12.647 11.216 11.591 11.216V10.46C12.359 10.532 13.103 10.568 13.823 10.568C14.519 10.568 15.179 10.532 15.803 10.46C16.451 10.364 17.039 10.232 17.567 10.064V14.312C18.191 12.68 19.055 11.552 20.159 10.928C21.287 10.28 22.463 9.956 23.687 9.956ZM49.451 0.776001V25.076C49.451 26.156 49.643 26.96 50.027 27.488C50.435 27.992 51.155 28.244 52.187 28.244V29C51.443 28.928 50.699 28.892 49.955 28.892C49.259 28.892 48.587 28.928 47.939 29C47.315 29.072 46.739 29.204 46.211 29.396V5.096C46.211 4.016 46.019 3.224 45.635 2.72C45.251 2.192 44.531 1.928 43.475 1.928V1.172C44.243 1.244 44.987 1.28 45.707 1.28C46.403 1.28 47.063 1.244 47.687 1.172C48.335 1.076 48.923 0.944001 49.451 0.776001ZM41.891 9.956C42.947 9.956 43.931 10.208 44.843 10.712C45.779 11.216 46.403 12.08 46.715 13.304L46.247 13.664C45.911 12.656 45.383 11.924 44.663 11.468C43.967 11.012 43.139 10.784 42.179 10.784C40.763 10.784 39.575 11.516 38.615 12.98C37.679 14.444 37.223 16.7 37.247 19.748C37.247 21.692 37.427 23.312 37.787 24.608C38.171 25.88 38.723 26.84 39.443 27.488C40.187 28.112 41.087 28.424 42.143 28.424C43.151 28.424 44.063 27.992 44.879 27.128C45.695 26.264 46.187 24.992 46.355 23.312L46.787 23.816C46.595 25.64 46.007 27.044 45.023 28.028C44.063 29.012 42.755 29.504 41.099 29.504C39.611 29.504 38.303 29.144 37.175 28.424C36.071 27.704 35.219 26.624 34.619 25.184C34.043 23.744 33.755 21.932 33.755 19.748C33.755 17.564 34.127 15.752 34.871 14.312C35.639 12.848 36.635 11.756 37.859 11.036C39.107 10.316 40.451 9.956 41.891 9.956ZM62.737 9.956C64.849 9.956 66.493 10.604 67.669 11.9C68.869 13.172 69.469 15.164 69.469 17.876H56.761L56.725 17.192H66.013C66.061 16.016 65.965 14.936 65.725 13.952C65.485 12.944 65.101 12.14 64.573 11.54C64.069 10.94 63.409 10.64 62.593 10.64C61.489 10.64 60.505 11.192 59.641 12.296C58.801 13.4 58.297 15.152 58.129 17.552L58.237 17.696C58.189 18.056 58.153 18.452 58.129 18.884C58.105 19.316 58.093 19.748 58.093 20.18C58.093 21.812 58.357 23.216 58.885 24.392C59.413 25.568 60.097 26.468 60.937 27.092C61.801 27.692 62.689 27.992 63.601 27.992C64.321 27.992 65.005 27.884 65.653 27.668C66.301 27.428 66.901 27.044 67.453 26.516C68.005 25.988 68.485 25.28 68.893 24.392L69.613 24.68C69.349 25.472 68.917 26.24 68.317 26.984C67.717 27.728 66.961 28.34 66.049 28.82C65.137 29.276 64.081 29.504 62.881 29.504C61.153 29.504 59.665 29.108 58.417 28.316C57.193 27.524 56.245 26.432 55.573 25.04C54.925 23.624 54.601 22.004 54.601 20.18C54.601 18.068 54.937 16.256 55.609 14.744C56.281 13.208 57.229 12.032 58.453 11.216C59.677 10.376 61.105 9.956 62.737 9.956ZM77.924 0.776001V25.652C77.924 26.66 78.128 27.344 78.536 27.704C78.968 28.064 79.676 28.244 80.66 28.244V29C80.252 28.976 79.628 28.952 78.788 28.928C77.972 28.88 77.144 28.856 76.304 28.856C75.488 28.856 74.66 28.88 73.82 28.928C72.98 28.952 72.356 28.976 71.948 29V28.244C72.932 28.244 73.628 28.064 74.036 27.704C74.468 27.344 74.684 26.66 74.684 25.652V5.096C74.684 4.016 74.492 3.224 74.108 2.72C73.724 2.192 73.004 1.928 71.948 1.928V1.172C72.716 1.244 73.46 1.28 74.18 1.28C74.876 1.28 75.536 1.244 76.16 1.172C76.808 1.076 77.396 0.944001 77.924 0.776001ZM86.605 1.46C87.229 1.46 87.769 1.688 88.225 2.144C88.681 2.6 88.909 3.14 88.909 3.764C88.909 4.388 88.681 4.928 88.225 5.384C87.769 5.84 87.229 6.068 86.605 6.068C85.981 6.068 85.441 5.84 84.985 5.384C84.529 4.928 84.301 4.388 84.301 3.764C84.301 3.14 84.529 2.6 84.985 2.144C85.441 1.688 85.981 1.46 86.605 1.46ZM88.477 10.064V25.652C88.477 26.66 88.681 27.344 89.089 27.704C89.521 28.064 90.229 28.244 91.213 28.244V29C90.805 28.976 90.181 28.952 89.341 28.928C88.525 28.88 87.697 28.856 86.857 28.856C86.041 28.856 85.213 28.88 84.373 28.928C83.533 28.952 82.909 28.976 82.501 29V28.244C83.485 28.244 84.181 28.064 84.589 27.704C85.021 27.344 85.237 26.66 85.237 25.652V14.384C85.237 13.304 85.045 12.512 84.661 12.008C84.277 11.48 83.557 11.216 82.501 11.216V10.46C83.269 10.532 84.013 10.568 84.733 10.568C85.429 10.568 86.089 10.532 86.713 10.46C87.361 10.364 87.949 10.232 88.477 10.064ZM103.74 9.956C105.708 9.956 107.34 10.772 108.636 12.404C109.932 14.012 110.58 16.46 110.58 19.748C110.58 21.908 110.208 23.72 109.464 25.184C108.744 26.624 107.772 27.704 106.548 28.424C105.324 29.144 103.992 29.504 102.552 29.504C101.352 29.504 100.188 29.168 99.06 28.496C97.956 27.8 97.128 26.78 96.576 25.436L97.296 25.832C97.896 26.792 98.64 27.512 99.528 27.992C100.416 28.448 101.328 28.676 102.264 28.676C103.872 28.676 105.072 27.956 105.864 26.516C106.68 25.052 107.088 22.796 107.088 19.748C107.088 17.804 106.932 16.184 106.62 14.888C106.308 13.592 105.828 12.632 105.18 12.008C104.532 11.36 103.704 11.036 102.696 11.036C101.592 11.036 100.56 11.54 99.6 12.548C98.664 13.532 98.088 14.984 97.872 16.904L97.44 16.4C97.704 14.36 98.412 12.776 99.564 11.648C100.74 10.52 102.132 9.956 103.74 9.956ZM98.124 0.811996V27.128C97.812 27.392 97.488 27.668 97.152 27.956C96.84 28.22 96.528 28.484 96.216 28.748C95.904 29.012 95.58 29.288 95.244 29.576L94.632 29.324C94.728 28.988 94.788 28.652 94.812 28.316C94.86 27.956 94.884 27.596 94.884 27.236V5.132C94.884 4.052 94.692 3.26 94.308 2.756C93.924 2.228 93.204 1.964 92.148 1.964V1.208C92.916 1.28 93.66 1.316 94.38 1.316C95.076 1.316 95.736 1.28 96.36 1.208C97.008 1.112 97.596 0.979996 98.124 0.811996ZM118.706 0.776001V25.652C118.706 26.66 118.91 27.344 119.318 27.704C119.75 28.064 120.458 28.244 121.441 28.244V29C121.034 28.976 120.41 28.952 119.57 28.928C118.754 28.88 117.926 28.856 117.086 28.856C116.27 28.856 115.442 28.88 114.602 28.928C113.762 28.952 113.138 28.976 112.73 29V28.244C113.714 28.244 114.41 28.064 114.818 27.704C115.25 27.344 115.466 26.66 115.466 25.652V5.096C115.466 4.016 115.274 3.224 114.89 2.72C114.506 2.192 113.786 1.928 112.73 1.928V1.172C113.498 1.244 114.242 1.28 114.962 1.28C115.658 1.28 116.318 1.244 116.942 1.172C117.59 1.076 118.178 0.944001 118.706 0.776001ZM131.679 9.956C133.791 9.956 135.435 10.604 136.611 11.9C137.811 13.172 138.411 15.164 138.411 17.876H125.703L125.667 17.192H134.955C135.003 16.016 134.907 14.936 134.667 13.952C134.427 12.944 134.043 12.14 133.515 11.54C133.011 10.94 132.351 10.64 131.535 10.64C130.431 10.64 129.447 11.192 128.583 12.296C127.743 13.4 127.239 15.152 127.071 17.552L127.179 17.696C127.131 18.056 127.095 18.452 127.071 18.884C127.047 19.316 127.035 19.748 127.035 20.18C127.035 21.812 127.299 23.216 127.827 24.392C128.355 25.568 129.039 26.468 129.879 27.092C130.743 27.692 131.631 27.992 132.543 27.992C133.263 27.992 133.947 27.884 134.595 27.668C135.243 27.428 135.843 27.044 136.395 26.516C136.947 25.988 137.427 25.28 137.835 24.392L138.555 24.68C138.291 25.472 137.859 26.24 137.259 26.984C136.659 27.728 135.903 28.34 134.991 28.82C134.079 29.276 133.023 29.504 131.823 29.504C130.095 29.504 128.607 29.108 127.359 28.316C126.135 27.524 125.187 26.432 124.515 25.04C123.867 23.624 123.543 22.004 123.543 20.18C123.543 18.068 123.879 16.256 124.551 14.744C125.223 13.208 126.171 12.032 127.395 11.216C128.619 10.376 130.047 9.956 131.679 9.956ZM6.76799 58.064V80.168C6.76799 81.2 7.06799 81.884 7.66799 82.22C8.29199 82.58 9.14399 82.76 10.224 82.76V83.516C9.69599 83.492 8.96399 83.456 8.02799 83.408C7.09199 83.384 6.09599 83.372 5.03999 83.372C4.29599 83.372 3.55199 83.384 2.80799 83.408C2.08799 83.456 1.53599 83.492 1.15199 83.516V82.76C2.01599 82.76 2.62799 82.604 2.98799 82.292C3.34799 81.98 3.52799 81.392 3.52799 80.528V62.384C3.52799 61.304 3.336 60.512 2.952 60.008C2.568 59.48 1.84799 59.216 0.791992 59.216V58.46C1.55999 58.532 2.30399 58.568 3.02399 58.568C3.71999 58.568 4.37999 58.532 5.00399 58.46C5.65199 58.364 6.23999 58.232 6.76799 58.064ZM12.528 57.956C13.8 57.956 14.94 58.304 15.948 59C16.956 59.672 17.748 60.668 18.324 61.988C18.924 63.308 19.224 64.94 19.224 66.884C19.224 68.18 19.068 69.464 18.756 70.736C18.444 71.984 17.952 73.124 17.28 74.156C16.632 75.164 15.78 75.98 14.724 76.604C13.692 77.204 12.444 77.504 10.98 77.504C9.852 77.504 8.86799 77.24 8.02799 76.712C7.21199 76.184 6.65999 75.548 6.37199 74.804L6.73199 74.3C7.06799 74.972 7.54799 75.536 8.17199 75.992C8.81999 76.448 9.62399 76.676 10.584 76.676C11.928 76.676 12.972 76.256 13.716 75.416C14.46 74.576 14.976 73.46 15.264 72.068C15.576 70.652 15.732 69.092 15.732 67.388C15.732 65.468 15.576 63.896 15.264 62.672C14.952 61.448 14.484 60.536 13.86 59.936C13.236 59.336 12.468 59.036 11.556 59.036C10.38 59.036 9.31199 59.528 8.35199 60.512C7.39199 61.472 6.77999 62.936 6.51599 64.904L6.08399 64.4C6.34799 62.36 7.068 60.776 8.244 59.648C9.444 58.52 10.872 57.956 12.528 57.956ZM27.074 77.252C26.09 77.252 25.238 77.072 24.518 76.712C23.798 76.328 23.246 75.8 22.862 75.128C22.502 74.456 22.322 73.676 22.322 72.788C22.322 71.732 22.562 70.868 23.042 70.196C23.546 69.524 24.182 68.984 24.95 68.576C25.718 68.168 26.522 67.832 27.362 67.568C28.226 67.28 29.042 67.016 29.81 66.776C30.578 66.512 31.202 66.212 31.682 65.876C32.186 65.54 32.438 65.096 32.438 64.544V62.312C32.438 61.304 32.282 60.536 31.97 60.008C31.682 59.48 31.286 59.132 30.782 58.964C30.278 58.772 29.714 58.676 29.09 58.676C28.49 58.676 27.842 58.76 27.146 58.928C26.474 59.096 25.934 59.444 25.526 59.972C25.982 60.068 26.378 60.308 26.714 60.692C27.05 61.076 27.218 61.568 27.218 62.168C27.218 62.768 27.026 63.248 26.642 63.608C26.258 63.944 25.766 64.112 25.166 64.112C24.47 64.112 23.954 63.896 23.618 63.464C23.306 63.008 23.15 62.504 23.15 61.952C23.15 61.328 23.306 60.824 23.618 60.44C23.93 60.056 24.326 59.696 24.806 59.36C25.358 58.976 26.066 58.652 26.93 58.388C27.818 58.1 28.814 57.956 29.918 57.956C30.902 57.956 31.742 58.076 32.438 58.316C33.134 58.532 33.71 58.856 34.166 59.288C34.79 59.864 35.198 60.572 35.39 61.412C35.582 62.228 35.678 63.212 35.678 64.364V74.372C35.678 74.972 35.762 75.404 35.93 75.668C36.122 75.932 36.41 76.064 36.794 76.064C37.058 76.064 37.31 76.004 37.55 75.884C37.79 75.764 38.078 75.572 38.414 75.308L38.81 75.92C38.306 76.304 37.826 76.628 37.37 76.892C36.914 77.132 36.302 77.252 35.534 77.252C34.838 77.252 34.262 77.132 33.806 76.892C33.35 76.652 33.002 76.304 32.762 75.848C32.546 75.368 32.438 74.768 32.438 74.048C31.79 75.128 31.01 75.932 30.098 76.46C29.21 76.988 28.202 77.252 27.074 77.252ZM28.37 75.812C29.162 75.812 29.894 75.584 30.566 75.128C31.262 74.672 31.886 73.988 32.438 73.076V66.02C32.15 66.428 31.73 66.776 31.178 67.064C30.626 67.328 30.026 67.604 29.378 67.892C28.73 68.156 28.106 68.48 27.506 68.864C26.93 69.224 26.45 69.704 26.066 70.304C25.682 70.904 25.49 71.684 25.49 72.644C25.49 73.604 25.742 74.372 26.246 74.948C26.774 75.524 27.482 75.812 28.37 75.812ZM43.996 49.46C44.62 49.46 45.16 49.688 45.616 50.144C46.072 50.6 46.3 51.14 46.3 51.764C46.3 52.388 46.072 52.928 45.616 53.384C45.16 53.84 44.62 54.068 43.996 54.068C43.372 54.068 42.832 53.84 42.376 53.384C41.92 52.928 41.692 52.388 41.692 51.764C41.692 51.14 41.92 50.6 42.376 50.144C42.832 49.688 43.372 49.46 43.996 49.46ZM45.868 58.064V73.652C45.868 74.66 46.072 75.344 46.48 75.704C46.912 76.064 47.62 76.244 48.604 76.244V77C48.196 76.976 47.572 76.952 46.732 76.928C45.916 76.88 45.088 76.856 44.248 76.856C43.432 76.856 42.604 76.88 41.764 76.928C40.924 76.952 40.3 76.976 39.892 77V76.244C40.876 76.244 41.572 76.064 41.98 75.704C42.412 75.344 42.628 74.66 42.628 73.652V62.384C42.628 61.304 42.436 60.512 42.052 60.008C41.668 59.48 40.948 59.216 39.892 59.216V58.46C40.66 58.532 41.404 58.568 42.124 58.568C42.82 58.568 43.48 58.532 44.104 58.46C44.752 58.364 45.34 58.232 45.868 58.064ZM62.535 57.956C63.447 57.956 64.203 58.076 64.803 58.316C65.427 58.556 65.943 58.892 66.351 59.324C66.807 59.804 67.131 60.404 67.323 61.124C67.515 61.844 67.611 62.816 67.611 64.04V73.652C67.611 74.66 67.815 75.344 68.223 75.704C68.655 76.064 69.363 76.244 70.347 76.244V77C69.939 76.976 69.315 76.952 68.475 76.928C67.635 76.88 66.819 76.856 66.027 76.856C65.235 76.856 64.455 76.88 63.687 76.928C62.943 76.952 62.379 76.976 61.995 77V76.244C62.859 76.244 63.471 76.064 63.831 75.704C64.191 75.344 64.371 74.66 64.371 73.652V63.248C64.371 62.504 64.311 61.82 64.191 61.196C64.071 60.572 63.795 60.068 63.363 59.684C62.955 59.3 62.319 59.108 61.455 59.108C60.447 59.108 59.559 59.396 58.791 59.972C58.047 60.548 57.459 61.34 57.027 62.348C56.619 63.332 56.415 64.436 56.415 65.66V73.652C56.415 74.66 56.595 75.344 56.955 75.704C57.315 76.064 57.927 76.244 58.791 76.244V77C58.407 76.976 57.831 76.952 57.063 76.928C56.319 76.88 55.551 76.856 54.759 76.856C53.967 76.856 53.151 76.88 52.311 76.928C51.471 76.952 50.847 76.976 50.439 77V76.244C51.423 76.244 52.119 76.064 52.527 75.704C52.959 75.344 53.175 74.66 53.175 73.652V62.384C53.175 61.304 52.983 60.512 52.599 60.008C52.215 59.48 51.495 59.216 50.439 59.216V58.46C51.207 58.532 51.951 58.568 52.671 58.568C53.367 58.568 54.027 58.532 54.651 58.46C55.299 58.364 55.887 58.232 56.415 58.064V62.312C57.039 60.68 57.903 59.552 59.007 58.928C60.135 58.28 61.311 57.956 62.535 57.956ZM77.715 52.484V58.496H83.043V59.216H77.715V73.148C77.715 74.276 77.919 75.068 78.327 75.524C78.735 75.98 79.299 76.208 80.019 76.208C80.739 76.208 81.363 75.92 81.891 75.344C82.419 74.744 82.875 73.748 83.259 72.356L83.979 72.536C83.739 73.928 83.259 75.104 82.539 76.064C81.843 77.024 80.763 77.504 79.299 77.504C78.483 77.504 77.811 77.396 77.283 77.18C76.755 76.988 76.287 76.7 75.879 76.316C75.351 75.764 74.979 75.104 74.763 74.336C74.571 73.568 74.475 72.548 74.475 71.276V59.216H71.019V58.496H74.475V52.988C75.075 52.964 75.651 52.916 76.203 52.844C76.755 52.772 77.259 52.652 77.715 52.484Z" fill="white"/>
</svg>