<svg xmlns="http://www.w3.org/2000/svg" width="149" height="83" viewBox="0 0 149 83" fill="none">
  <path d="M0.511963 2.51199C1.01596 2.53599 1.67597 2.55999 2.49197 2.58399C3.30797 2.60799 4.11198 2.62 4.90398 2.62C6.03198 2.62 7.11197 2.60799 8.14397 2.58399C9.17597 2.55999 9.90797 2.54799 10.34 2.54799C13.244 2.54799 15.416 3.20799 16.856 4.52799C18.296 5.84799 19.016 7.55199 19.016 9.63999C19.016 10.504 18.872 11.416 18.584 12.376C18.296 13.312 17.792 14.188 17.072 15.004C16.376 15.796 15.416 16.444 14.192 16.948C12.968 17.452 11.42 17.704 9.54797 17.704H6.09196V16.984H9.18797C10.892 16.984 12.188 16.66 13.076 16.012C13.988 15.364 14.6 14.512 14.912 13.456C15.248 12.4 15.416 11.26 15.416 10.036C15.416 7.756 14.96 6.052 14.048 4.924C13.16 3.796 11.624 3.23199 9.43997 3.23199C8.33597 3.23199 7.61597 3.43599 7.27997 3.84399C6.94397 4.25199 6.77597 5.08 6.77597 6.328V24.184C6.77597 25.048 6.85997 25.696 7.02797 26.128C7.21997 26.56 7.57997 26.848 8.10797 26.992C8.63597 27.136 9.40397 27.232 10.412 27.28V28C9.78797 27.952 8.99597 27.928 8.03596 27.928C7.07596 27.904 6.10396 27.892 5.11996 27.892C4.18396 27.892 3.30797 27.904 2.49197 27.928C1.67597 27.928 1.01596 27.952 0.511963 28V27.28C1.32796 27.232 1.93998 27.136 2.34798 26.992C2.77998 26.848 3.06798 26.56 3.21198 26.128C3.35598 25.696 3.42796 25.048 3.42796 24.184V6.328C3.42796 5.44 3.35598 4.792 3.21198 4.384C3.06798 3.952 2.77998 3.66399 2.34798 3.51999C1.93998 3.35199 1.32796 3.25599 0.511963 3.23199V2.51199ZM32.299 8.95599C32.947 8.95599 33.511 9.08799 33.991 9.35199C34.495 9.61599 34.879 9.964 35.143 10.396C35.431 10.804 35.575 11.272 35.575 11.8C35.575 12.4 35.383 12.928 34.999 13.384C34.639 13.84 34.147 14.068 33.523 14.068C33.019 14.068 32.575 13.912 32.191 13.6C31.807 13.264 31.615 12.796 31.615 12.196C31.615 11.74 31.735 11.356 31.975 11.044C32.239 10.708 32.527 10.444 32.839 10.252C32.671 10.012 32.419 9.89199 32.083 9.89199C31.339 9.89199 30.655 10.12 30.031 10.576C29.407 11.008 28.879 11.572 28.447 12.268C28.015 12.964 27.679 13.708 27.439 14.5C27.199 15.268 27.079 15.988 27.079 16.66V24.292C27.079 25.468 27.415 26.26 28.087 26.668C28.783 27.052 29.719 27.244 30.895 27.244V28C30.343 27.976 29.563 27.952 28.555 27.928C27.547 27.88 26.479 27.856 25.351 27.856C24.535 27.856 23.719 27.88 22.903 27.928C22.111 27.952 21.511 27.976 21.103 28V27.244C22.087 27.244 22.783 27.064 23.191 26.704C23.623 26.344 23.839 25.66 23.839 24.652V13.384C23.839 12.304 23.647 11.512 23.263 11.008C22.879 10.48 22.159 10.216 21.103 10.216V9.45999C21.871 9.53199 22.615 9.56799 23.335 9.56799C24.031 9.56799 24.691 9.53199 25.315 9.45999C25.963 9.36399 26.551 9.232 27.079 9.064V13.564C27.343 12.868 27.715 12.172 28.195 11.476C28.699 10.756 29.299 10.156 29.995 9.67599C30.691 9.196 31.459 8.95599 32.299 8.95599ZM45.179 8.95599C47.291 8.95599 48.935 9.60399 50.111 10.9C51.311 12.172 51.911 14.164 51.911 16.876H39.203L39.167 16.192H48.455C48.503 15.016 48.407 13.936 48.167 12.952C47.927 11.944 47.543 11.14 47.015 10.54C46.511 9.93999 45.851 9.63999 45.035 9.63999C43.931 9.63999 42.947 10.192 42.083 11.296C41.243 12.4 40.739 14.152 40.571 16.552L40.679 16.696C40.631 17.056 40.595 17.452 40.571 17.884C40.547 18.316 40.535 18.748 40.535 19.18C40.535 20.812 40.799 22.216 41.327 23.392C41.855 24.568 42.539 25.468 43.379 26.092C44.243 26.692 45.131 26.992 46.043 26.992C46.763 26.992 47.447 26.884 48.095 26.668C48.743 26.428 49.343 26.044 49.895 25.516C50.447 24.988 50.927 24.28 51.335 23.392L52.055 23.68C51.791 24.472 51.359 25.24 50.759 25.984C50.159 26.728 49.403 27.34 48.491 27.82C47.579 28.276 46.523 28.504 45.323 28.504C43.595 28.504 42.107 28.108 40.859 27.316C39.635 26.524 38.687 25.432 38.015 24.04C37.367 22.624 37.043 21.004 37.043 19.18C37.043 17.068 37.379 15.256 38.051 13.744C38.723 12.208 39.671 11.032 40.895 10.216C42.119 9.376 43.547 8.95599 45.179 8.95599ZM66.522 8.95599C67.362 8.95599 68.094 9.07599 68.718 9.31599C69.342 9.55599 69.858 9.89199 70.266 10.324C70.722 10.804 71.034 11.428 71.202 12.196C71.37 12.964 71.454 13.912 71.454 15.04V24.652C71.454 25.66 71.658 26.344 72.066 26.704C72.498 27.064 73.206 27.244 74.19 27.244V28C73.782 27.976 73.158 27.952 72.318 27.928C71.478 27.88 70.662 27.856 69.87 27.856C69.078 27.856 68.298 27.88 67.53 27.928C66.786 27.952 66.222 27.976 65.838 28V27.244C66.702 27.244 67.314 27.064 67.674 26.704C68.034 26.344 68.214 25.66 68.214 24.652V14.248C68.214 13.504 68.166 12.82 68.07 12.196C67.974 11.572 67.734 11.068 67.35 10.684C66.966 10.3 66.342 10.108 65.478 10.108C64.542 10.108 63.702 10.396 62.958 10.972C62.238 11.548 61.662 12.34 61.23 13.348C60.822 14.332 60.618 15.436 60.618 16.66V24.652C60.618 25.66 60.798 26.344 61.158 26.704C61.518 27.064 62.13 27.244 62.994 27.244V28C62.61 27.976 62.034 27.952 61.266 27.928C60.522 27.88 59.754 27.856 58.962 27.856C58.17 27.856 57.354 27.88 56.514 27.928C55.674 27.952 55.05 27.976 54.642 28V27.244C55.626 27.244 56.322 27.064 56.73 26.704C57.162 26.344 57.378 25.66 57.378 24.652V13.384C57.378 12.304 57.186 11.512 56.802 11.008C56.418 10.48 55.698 10.216 54.642 10.216V9.45999C55.41 9.53199 56.154 9.56799 56.874 9.56799C57.57 9.56799 58.23 9.53199 58.854 9.45999C59.502 9.36399 60.09 9.232 60.618 9.064V13.312C61.242 11.752 62.094 10.636 63.174 9.96399C64.254 9.29199 65.37 8.95599 66.522 8.95599ZM77.358 8.95599C78.198 8.95599 78.93 9.07599 79.554 9.31599C80.178 9.55599 80.694 9.89199 81.102 10.324C81.558 10.804 81.87 11.428 82.038 12.196C82.206 12.964 82.29 13.912 82.29 15.04V24.652C82.29 25.66 82.494 26.344 82.902 26.704C83.334 27.064 84.042 27.244 85.026 27.244V28C84.618 27.976 83.994 27.952 83.154 27.928C82.314 27.88 81.498 27.856 80.706 27.856C79.914 27.856 79.134 27.88 78.366 27.928C77.622 27.952 77.058 27.976 76.674 28V27.244C77.538 27.244 78.15 27.064 78.51 26.704C78.87 26.344 79.05 25.66 79.05 24.652V14.248C79.05 13.504 79.002 12.82 78.906 12.196C78.81 11.572 78.57 11.068 78.186 10.684C77.802 10.3 77.178 10.108 76.314 10.108C75.378 10.108 74.538 10.396 73.794 10.972C73.074 11.548 72.498 12.328 72.066 13.312C71.658 14.296 71.454 15.4 71.454 16.624L71.346 13.276C71.994 11.62 72.87 10.492 73.974 9.89199C75.078 9.26799 76.206 8.95599 77.358 8.95599ZM90.703 0.459991C91.327 0.459991 91.867 0.68799 92.323 1.14399C92.779 1.59999 93.007 2.13999 93.007 2.76399C93.007 3.38799 92.779 3.92799 92.323 4.384C91.867 4.83999 91.327 5.06799 90.703 5.06799C90.079 5.06799 89.539 4.83999 89.083 4.384C88.627 3.92799 88.399 3.38799 88.399 2.76399C88.399 2.13999 88.627 1.59999 89.083 1.14399C89.539 0.68799 90.079 0.459991 90.703 0.459991ZM92.575 9.064V24.652C92.575 25.66 92.779 26.344 93.187 26.704C93.619 27.064 94.327 27.244 95.311 27.244V28C94.903 27.976 94.279 27.952 93.439 27.928C92.623 27.88 91.795 27.856 90.955 27.856C90.139 27.856 89.311 27.88 88.471 27.928C87.631 27.952 87.007 27.976 86.599 28V27.244C87.583 27.244 88.279 27.064 88.687 26.704C89.119 26.344 89.335 25.66 89.335 24.652V13.384C89.335 12.304 89.143 11.512 88.759 11.008C88.375 10.48 87.655 10.216 86.599 10.216V9.45999C87.367 9.53199 88.111 9.56799 88.831 9.56799C89.527 9.56799 90.187 9.53199 90.811 9.45999C91.459 9.36399 92.047 9.232 92.575 9.064ZM113.49 9.064V24.112C113.49 25.192 113.682 25.996 114.066 26.524C114.474 27.028 115.194 27.28 116.226 27.28V28.036C115.482 27.964 114.738 27.928 113.994 27.928C113.298 27.928 112.626 27.964 111.978 28.036C111.354 28.108 110.778 28.24 110.25 28.432V24.184C109.65 25.744 108.798 26.86 107.694 27.532C106.614 28.18 105.498 28.504 104.346 28.504C103.506 28.504 102.774 28.384 102.15 28.144C101.526 27.904 101.01 27.568 100.602 27.136C100.146 26.656 99.834 26.032 99.666 25.264C99.498 24.496 99.414 23.548 99.414 22.42V13.384C99.414 12.304 99.222 11.512 98.838 11.008C98.454 10.48 97.734 10.216 96.678 10.216V9.45999C97.446 9.53199 98.19 9.56799 98.91 9.56799C99.606 9.56799 100.266 9.53199 100.89 9.45999C101.538 9.36399 102.126 9.232 102.654 9.064V23.212C102.654 23.956 102.702 24.64 102.798 25.264C102.894 25.888 103.134 26.392 103.518 26.776C103.902 27.16 104.526 27.352 105.39 27.352C106.326 27.352 107.154 27.064 107.874 26.488C108.618 25.912 109.194 25.132 109.602 24.148C110.034 23.164 110.25 22.06 110.25 20.836V13.384C110.25 12.304 110.058 11.512 109.674 11.008C109.29 10.48 108.57 10.216 107.514 10.216V9.45999C108.282 9.53199 109.026 9.56799 109.746 9.56799C110.442 9.56799 111.102 9.53199 111.726 9.45999C112.374 9.36399 112.962 9.232 113.49 9.064ZM129.944 8.95599C130.784 8.95599 131.516 9.07599 132.14 9.31599C132.764 9.55599 133.28 9.89199 133.688 10.324C134.144 10.804 134.456 11.428 134.624 12.196C134.792 12.964 134.876 13.912 134.876 15.04V24.652C134.876 25.66 135.08 26.344 135.488 26.704C135.92 27.064 136.628 27.244 137.612 27.244V28C137.204 27.976 136.58 27.952 135.74 27.928C134.9 27.88 134.084 27.856 133.292 27.856C132.5 27.856 131.72 27.88 130.952 27.928C130.208 27.952 129.644 27.976 129.26 28V27.244C130.124 27.244 130.736 27.064 131.096 26.704C131.456 26.344 131.636 25.66 131.636 24.652V14.248C131.636 13.504 131.588 12.82 131.492 12.196C131.396 11.572 131.156 11.068 130.772 10.684C130.388 10.3 129.764 10.108 128.9 10.108C127.964 10.108 127.124 10.396 126.38 10.972C125.66 11.548 125.084 12.34 124.652 13.348C124.244 14.332 124.04 15.436 124.04 16.66V24.652C124.04 25.66 124.22 26.344 124.58 26.704C124.94 27.064 125.552 27.244 126.416 27.244V28C126.032 27.976 125.456 27.952 124.688 27.928C123.944 27.88 123.176 27.856 122.384 27.856C121.592 27.856 120.776 27.88 119.936 27.928C119.096 27.952 118.472 27.976 118.064 28V27.244C119.048 27.244 119.744 27.064 120.152 26.704C120.584 26.344 120.8 25.66 120.8 24.652V13.384C120.8 12.304 120.608 11.512 120.224 11.008C119.84 10.48 119.12 10.216 118.064 10.216V9.45999C118.832 9.53199 119.576 9.56799 120.296 9.56799C120.992 9.56799 121.652 9.53199 122.276 9.45999C122.924 9.36399 123.512 9.232 124.04 9.064V13.312C124.664 11.752 125.516 10.636 126.596 9.96399C127.676 9.29199 128.792 8.95599 129.944 8.95599ZM140.78 8.95599C141.62 8.95599 142.352 9.07599 142.976 9.31599C143.6 9.55599 144.116 9.89199 144.524 10.324C144.98 10.804 145.292 11.428 145.46 12.196C145.628 12.964 145.712 13.912 145.712 15.04V24.652C145.712 25.66 145.916 26.344 146.324 26.704C146.756 27.064 147.464 27.244 148.448 27.244V28C148.04 27.976 147.416 27.952 146.576 27.928C145.736 27.88 144.92 27.856 144.128 27.856C143.336 27.856 142.556 27.88 141.788 27.928C141.044 27.952 140.48 27.976 140.096 28V27.244C140.96 27.244 141.572 27.064 141.932 26.704C142.292 26.344 142.472 25.66 142.472 24.652V14.248C142.472 13.504 142.424 12.82 142.328 12.196C142.232 11.572 141.992 11.068 141.608 10.684C141.224 10.3 140.6 10.108 139.736 10.108C138.8 10.108 137.96 10.396 137.216 10.972C136.496 11.548 135.92 12.328 135.488 13.312C135.08 14.296 134.876 15.4 134.876 16.624L134.768 13.276C135.416 11.62 136.292 10.492 137.396 9.89199C138.5 9.26799 139.628 8.95599 140.78 8.95599ZM25.928 76.828L26.468 77.044C26.18 78.028 25.844 78.844 25.46 79.492C25.1 80.164 24.68 80.716 24.2 81.148C23.744 81.556 23.12 81.928 22.328 82.264C21.56 82.6 20.564 82.768 19.34 82.768C18.068 82.768 16.832 82.552 15.632 82.12C14.456 81.712 13.232 81.208 11.96 80.608C10.688 80.008 9.28397 79.456 7.74797 78.952C7.57997 78.904 7.42397 78.856 7.27997 78.808C7.13597 78.76 7.00397 78.724 6.88397 78.7C6.42797 78.868 5.93597 79 5.40797 79.096C4.87997 79.192 4.37597 79.24 3.89597 79.24C3.41597 79.24 3.01996 79.18 2.70796 79.06C2.39596 78.94 2.23997 78.76 2.23997 78.52C2.23997 78.016 2.88798 77.764 4.18398 77.764C5.02398 77.764 5.92397 77.86 6.88397 78.052C7.74797 77.812 8.49197 77.536 9.11597 77.224C9.73997 76.936 10.376 76.66 11.024 76.396C11.696 76.132 12.5 75.964 13.436 75.892L13.472 76.468C12.752 76.54 12.128 76.672 11.6 76.864C11.072 77.08 10.544 77.308 10.016 77.548C9.48798 77.788 8.86397 78.016 8.14397 78.232C9.34397 78.472 10.652 78.724 12.068 78.988C13.484 79.252 14.852 79.48 16.172 79.672C17.492 79.864 18.62 79.96 19.556 79.96C21.284 79.96 22.64 79.708 23.624 79.204C24.632 78.7 25.4 77.908 25.928 76.828ZM12.356 50.008C14.636 50.008 16.628 50.524 18.332 51.556C20.06 52.588 21.392 54.076 22.328 56.02C23.288 57.94 23.768 60.28 23.768 63.04C23.768 65.728 23.276 68.08 22.292 70.096C21.332 72.112 19.988 73.684 18.26 74.812C16.532 75.94 14.552 76.504 12.32 76.504C10.04 76.504 8.03597 75.988 6.30797 74.956C4.60397 73.924 3.27197 72.436 2.31197 70.492C1.37597 68.548 0.907974 66.208 0.907974 63.472C0.907974 60.784 1.39997 58.432 2.38397 56.416C3.36797 54.4 4.71197 52.828 6.41597 51.7C8.14397 50.572 10.124 50.008 12.356 50.008ZM12.212 50.656C10.652 50.656 9.29597 51.196 8.14397 52.276C6.99197 53.356 6.09197 54.844 5.44397 56.74C4.81997 58.636 4.50797 60.832 4.50797 63.328C4.50797 65.872 4.85597 68.092 5.55197 69.988C6.27197 71.86 7.23198 73.312 8.43198 74.344C9.65598 75.352 11 75.856 12.464 75.856C14.024 75.856 15.38 75.316 16.532 74.236C17.684 73.156 18.572 71.668 19.196 69.772C19.844 67.852 20.168 65.656 20.168 63.184C20.168 60.616 19.808 58.396 19.088 56.524C18.392 54.652 17.444 53.212 16.244 52.204C15.044 51.172 13.7 50.656 12.212 50.656ZM43.072 57.064V72.112C43.072 73.192 43.264 73.996 43.648 74.524C44.056 75.028 44.776 75.28 45.808 75.28V76.036C45.064 75.964 44.32 75.928 43.576 75.928C42.88 75.928 42.208 75.964 41.56 76.036C40.936 76.108 40.36 76.24 39.832 76.432V72.184C39.232 73.744 38.38 74.86 37.276 75.532C36.196 76.18 35.08 76.504 33.928 76.504C33.088 76.504 32.356 76.384 31.732 76.144C31.108 75.904 30.592 75.568 30.184 75.136C29.728 74.656 29.416 74.032 29.248 73.264C29.08 72.496 28.996 71.548 28.996 70.42V61.384C28.996 60.304 28.804 59.512 28.42 59.008C28.036 58.48 27.316 58.216 26.26 58.216V57.46C27.028 57.532 27.772 57.568 28.492 57.568C29.188 57.568 29.848 57.532 30.472 57.46C31.12 57.364 31.708 57.232 32.236 57.064V71.212C32.236 71.956 32.284 72.64 32.38 73.264C32.476 73.888 32.716 74.392 33.1 74.776C33.484 75.16 34.108 75.352 34.972 75.352C35.908 75.352 36.736 75.064 37.456 74.488C38.2 73.912 38.776 73.132 39.184 72.148C39.616 71.164 39.832 70.06 39.832 68.836V61.384C39.832 60.304 39.64 59.512 39.256 59.008C38.872 58.48 38.152 58.216 37.096 58.216V57.46C37.864 57.532 38.608 57.568 39.328 57.568C40.024 57.568 40.684 57.532 41.308 57.46C41.956 57.364 42.544 57.232 43.072 57.064ZM52.758 76.252C51.774 76.252 50.922 76.072 50.202 75.712C49.482 75.328 48.93 74.8 48.546 74.128C48.186 73.456 48.006 72.676 48.006 71.788C48.006 70.732 48.246 69.868 48.726 69.196C49.23 68.524 49.866 67.984 50.634 67.576C51.402 67.168 52.206 66.832 53.046 66.568C53.91 66.28 54.726 66.016 55.494 65.776C56.262 65.512 56.886 65.212 57.366 64.876C57.87 64.54 58.122 64.096 58.122 63.544V61.312C58.122 60.304 57.966 59.536 57.654 59.008C57.366 58.48 56.97 58.132 56.466 57.964C55.962 57.772 55.398 57.676 54.774 57.676C54.174 57.676 53.526 57.76 52.83 57.928C52.158 58.096 51.618 58.444 51.21 58.972C51.666 59.068 52.062 59.308 52.398 59.692C52.734 60.076 52.902 60.568 52.902 61.168C52.902 61.768 52.71 62.248 52.326 62.608C51.942 62.944 51.45 63.112 50.85 63.112C50.154 63.112 49.638 62.896 49.302 62.464C48.99 62.008 48.834 61.504 48.834 60.952C48.834 60.328 48.99 59.824 49.302 59.44C49.614 59.056 50.01 58.696 50.49 58.36C51.042 57.976 51.75 57.652 52.614 57.388C53.502 57.1 54.498 56.956 55.602 56.956C56.586 56.956 57.426 57.076 58.122 57.316C58.818 57.532 59.394 57.856 59.85 58.288C60.474 58.864 60.882 59.572 61.074 60.412C61.266 61.228 61.362 62.212 61.362 63.364V73.372C61.362 73.972 61.446 74.404 61.614 74.668C61.806 74.932 62.094 75.064 62.478 75.064C62.742 75.064 62.994 75.004 63.234 74.884C63.474 74.764 63.762 74.572 64.098 74.308L64.494 74.92C63.99 75.304 63.51 75.628 63.054 75.892C62.598 76.132 61.986 76.252 61.218 76.252C60.522 76.252 59.946 76.132 59.49 75.892C59.034 75.652 58.686 75.304 58.446 74.848C58.23 74.368 58.122 73.768 58.122 73.048C57.474 74.128 56.694 74.932 55.782 75.46C54.894 75.988 53.886 76.252 52.758 76.252ZM54.054 74.812C54.846 74.812 55.578 74.584 56.25 74.128C56.946 73.672 57.57 72.988 58.122 72.076V65.02C57.834 65.428 57.414 65.776 56.862 66.064C56.31 66.328 55.71 66.604 55.062 66.892C54.414 67.156 53.79 67.48 53.19 67.864C52.614 68.224 52.134 68.704 51.75 69.304C51.366 69.904 51.174 70.684 51.174 71.644C51.174 72.604 51.426 73.372 51.93 73.948C52.458 74.524 53.166 74.812 54.054 74.812ZM71.299 47.776V72.652C71.299 73.66 71.503 74.344 71.911 74.704C72.343 75.064 73.051 75.244 74.035 75.244V76C73.627 75.976 73.003 75.952 72.163 75.928C71.347 75.88 70.519 75.856 69.679 75.856C68.863 75.856 68.035 75.88 67.195 75.928C66.355 75.952 65.731 75.976 65.323 76V75.244C66.307 75.244 67.003 75.064 67.411 74.704C67.843 74.344 68.059 73.66 68.059 72.652V52.096C68.059 51.016 67.867 50.224 67.483 49.72C67.099 49.192 66.379 48.928 65.323 48.928V48.172C66.091 48.244 66.835 48.28 67.555 48.28C68.251 48.28 68.911 48.244 69.535 48.172C70.183 48.076 70.771 47.944 71.299 47.776ZM79.98 48.46C80.604 48.46 81.144 48.688 81.6 49.144C82.056 49.6 82.284 50.14 82.284 50.764C82.284 51.388 82.056 51.928 81.6 52.384C81.144 52.84 80.604 53.068 79.98 53.068C79.356 53.068 78.816 52.84 78.36 52.384C77.904 51.928 77.676 51.388 77.676 50.764C77.676 50.14 77.904 49.6 78.36 49.144C78.816 48.688 79.356 48.46 79.98 48.46ZM81.852 57.064V72.652C81.852 73.66 82.056 74.344 82.464 74.704C82.896 75.064 83.604 75.244 84.588 75.244V76C84.18 75.976 83.556 75.952 82.716 75.928C81.9 75.88 81.072 75.856 80.232 75.856C79.416 75.856 78.588 75.88 77.748 75.928C76.908 75.952 76.284 75.976 75.876 76V75.244C76.86 75.244 77.556 75.064 77.964 74.704C78.396 74.344 78.612 73.66 78.612 72.652V61.384C78.612 60.304 78.42 59.512 78.036 59.008C77.652 58.48 76.932 58.216 75.876 58.216V57.46C76.644 57.532 77.388 57.568 78.108 57.568C78.804 57.568 79.464 57.532 80.088 57.46C80.736 57.364 81.324 57.232 81.852 57.064ZM92.219 51.484V57.496H97.547V58.216H92.219V72.148C92.219 73.276 92.423 74.068 92.831 74.524C93.239 74.98 93.803 75.208 94.523 75.208C95.243 75.208 95.867 74.92 96.395 74.344C96.923 73.744 97.379 72.748 97.763 71.356L98.483 71.536C98.243 72.928 97.763 74.104 97.043 75.064C96.347 76.024 95.267 76.504 93.803 76.504C92.987 76.504 92.315 76.396 91.787 76.18C91.259 75.988 90.791 75.7 90.383 75.316C89.855 74.764 89.483 74.104 89.267 73.336C89.075 72.568 88.979 71.548 88.979 70.276V58.216H85.523V57.496H88.979V51.988C89.579 51.964 90.155 51.916 90.707 51.844C91.259 51.772 91.763 51.652 92.219 51.484ZM115.889 57.46V58.18C115.433 58.228 115.013 58.432 114.629 58.792C114.245 59.152 113.885 59.788 113.549 60.7L107.645 76.18H107.033L100.409 60.232C99.953 59.296 99.497 58.732 99.041 58.54C98.609 58.324 98.249 58.216 97.961 58.216V57.46C98.489 57.532 99.041 57.592 99.617 57.64C100.193 57.664 100.817 57.676 101.489 57.676C102.233 57.676 103.013 57.652 103.829 57.604C104.669 57.556 105.449 57.508 106.169 57.46V58.216C105.569 58.216 105.029 58.264 104.549 58.36C104.093 58.432 103.805 58.684 103.685 59.116C103.565 59.524 103.709 60.232 104.117 61.24L108.545 72.22L108.329 72.292L112.433 61.564C112.745 60.772 112.865 60.148 112.793 59.692C112.745 59.212 112.505 58.852 112.073 58.612C111.641 58.372 110.993 58.228 110.129 58.18V57.46C110.561 57.484 110.933 57.508 111.245 57.532C111.557 57.532 111.857 57.544 112.145 57.568C112.457 57.568 112.793 57.568 113.153 57.568C113.705 57.568 114.197 57.556 114.629 57.532C115.085 57.508 115.505 57.484 115.889 57.46ZM107.645 76.18L106.421 79.312C106.181 79.912 105.929 80.416 105.665 80.824C105.425 81.232 105.161 81.568 104.873 81.832C104.489 82.192 104.033 82.432 103.505 82.552C102.977 82.696 102.497 82.768 102.065 82.768C101.609 82.768 101.189 82.684 100.805 82.516C100.445 82.348 100.157 82.096 99.941 81.76C99.725 81.448 99.617 81.064 99.617 80.608C99.617 80.032 99.785 79.564 100.121 79.204C100.457 78.868 100.925 78.7 101.525 78.7C102.029 78.7 102.461 78.844 102.821 79.132C103.181 79.42 103.361 79.84 103.361 80.392C103.361 80.8 103.265 81.136 103.073 81.4C102.881 81.664 102.653 81.868 102.389 82.012C102.437 82.036 102.473 82.048 102.497 82.048C102.545 82.048 102.581 82.048 102.605 82.048C103.253 82.048 103.829 81.82 104.333 81.364C104.837 80.932 105.281 80.224 105.665 79.24L106.961 75.892L107.645 76.18Z" fill="white"/>
</svg>