<svg xmlns="http://www.w3.org/2000/svg" width="70" height="115" viewBox="0 0 70 115" fill="none">
  <path d="M69.05 99.91C69.05 103.763 67.69 107.107 64.97 109.94C62.3633 112.66 58.68 114.02 53.92 114.02C49.16 114.02 40.83 113.68 28.93 113C17.03 112.32 7.84998 111.98 1.38998 111.98C-1.21669 108.127 -2.52002 104.103 -2.52002 99.91C-2.52002 95.603 -0.76335 91.127 2.74998 86.48C6.26328 81.72 10.5133 77.3 15.5 73.22C20.4867 69.027 25.4167 64.833 30.29 60.64C35.2767 56.447 39.5267 51.8 43.04 46.7C46.5533 41.6 48.31 36.7833 48.31 32.25C48.31 27.6033 47.0633 23.8067 44.57 20.86C42.0767 17.9133 38.6767 16.44 34.37 16.44C30.0633 16.44 26.4933 17.63 23.66 20.01C21.3933 23.41 20.26 27.32 20.26 31.74C20.26 36.0467 20.6 39.39 21.28 41.77C19.0133 42.3367 17.1433 42.62 15.67 42.62C11.1367 42.62 7.28328 41.3733 4.10998 38.88C1.04998 36.2733 -0.480019 32.8167 -0.480019 28.51C-0.480019 20.2367 3.37328 13.4933 11.08 8.27996C18.7867 3.06666 27.3433 0.459961 36.75 0.459961C46.1567 0.459961 53.92 3.00996 60.04 8.10996C66.16 13.0967 69.22 20.01 69.22 28.85C69.22 34.0633 67.5767 39.3333 64.29 44.66C61.0033 49.987 57.0367 54.917 52.39 59.45C47.7433 63.87 43.04 68.233 38.28 72.54C27.06 82.627 21.45 91.127 21.45 98.04C39.2433 97.813 54.43 94.98 67.01 89.54C68.37 92.6 69.05 96.057 69.05 99.91Z" fill="white"/>
</svg>