<svg xmlns="http://www.w3.org/2000/svg" width="54" height="115" viewBox="0 0 54 115" fill="none">
  <path d="M0.650024 25.62C6.99672 23.0133 13.7967 18.48 21.05 12.02C24.563 8.84669 27.85 6.12669 30.91 3.85999C33.97 1.59329 37.71 0.459991 42.13 0.459991C46.663 0.459991 50.517 1.25329 53.69 2.83999C50.97 24.3733 49.61 44.5467 49.61 63.36C49.61 82.173 50.63 98.38 52.67 111.98C49.497 113.34 45.813 114.02 41.62 114.02C37.427 114.02 34.027 112.66 31.42 109.94C28.813 107.22 27.51 103.593 27.51 99.06C27.51 94.413 28.417 84.723 30.23 69.99C32.043 55.257 33.007 39.2767 33.12 22.05C31.873 23.1833 29.777 25.45 26.83 28.85C20.257 36.4433 15.1 40.24 11.36 40.24C7.73332 40.24 5.01332 38.88 3.20002 36.16C1.50002 33.44 0.650024 29.9267 0.650024 25.62Z" fill="white"/>
</svg>