<svg xmlns="http://www.w3.org/2000/svg" width="81" height="116" viewBox="0 0 81 116" fill="none">
  <path d="M27 41.77C24.7333 42.3367 22.8633 42.62 21.39 42.62C16.8567 42.62 13.0033 41.3733 9.83003 38.88C6.77003 36.2733 5.24003 32.8167 5.24003 28.51C5.24003 20.2367 9.09332 13.4933 16.8 8.27996C24.5067 3.06666 33.0633 0.459961 42.47 0.459961C51.99 0.459961 59.7533 2.78326 65.76 7.42996C71.88 11.9633 74.94 18.5933 74.94 27.32C74.94 37.52 70.407 45.7933 61.34 52.14C67.3467 54.067 71.937 57.183 75.11 61.49C78.397 65.797 80.04 70.84 80.04 76.62C80.04 88.067 75.337 97.36 65.93 104.5C56.5233 111.527 45.4733 115.04 32.78 115.04C24.0533 115.04 16.5167 113.283 10.17 109.77C3.82332 106.257 0.650024 100.987 0.650024 93.96C0.650024 89.427 2.18003 85.8 5.24003 83.08C8.30003 80.36 12.1533 79 16.8 79C19.2933 79 21.5033 79.283 23.43 79.85C22.6367 82.117 22.24 84.27 22.24 86.31C22.24 90.39 23.77 93.563 26.83 95.83C29.89 97.983 34.0267 99.06 39.24 99.06C44.5667 99.06 48.93 97.417 52.33 94.13C55.73 90.73 57.43 86.31 57.43 80.87C57.43 75.43 55.9567 71.237 53.01 68.29C50.0633 65.343 46.1533 63.87 41.28 63.87C38.6733 63.87 36.4067 63.19 34.48 61.83C32.6667 60.357 31.76 58.6 31.76 56.56C31.76 54.407 32.0433 52.48 32.61 50.78C34.65 51.12 36.69 51.29 38.73 51.29C43.9433 51.29 47.7967 49.477 50.29 45.85C52.7833 42.2233 54.03 37.9167 54.03 32.93C54.03 27.9433 52.7833 23.9767 50.29 21.03C47.7967 17.97 44.3967 16.44 40.09 16.44C35.7833 16.44 32.1567 17.5733 29.21 19.84C27.0567 23.6933 25.98 27.66 25.98 31.74C25.98 35.82 26.32 39.1633 27 41.77Z" fill="white"/>
</svg>